# xmcd CD database file
#
# Track frame offsets:
#	225
#	17278
#	31344
#	42483
#
# Disc length: 742 seconds
#
# Revision: 0
# Processed by: cddbd v1.5.2PL0 Copyright (c) Steve Scherf et al.
# Submitted via: CDex 1.70beta2
#
DISCID=2502e304
DTITLE=Blue Date Bigband GaS - Barefootin'
DYEAR=2003
DGENRE=Blues
TTITLE0=Barefootin'
TTITLE1=Funky Cha-Cha
TTITLE2=Tuxedo Junction
TTITLE3=On Revival Day
EXTD=YEAR: 2003
EXTT0=
EXTT1=
EXTT2=
EXTT3=
PLAYORDER=
